<svg xmlns="http://www.w3.org/2000/svg" viewBox="0 0 164 41">
  <title>apple_music</title>
  <g id="apple_music" data-name="apple music">
    <path d="M25.93,21.67a8.14,8.14,0,0,1,4.1-7.4,9,9,0,0,0-7-3.86,9.88,9.88,0,0,0-4.18.78,20,20,0,0,1-3.08,1A9.09,9.09,0,0,1,13,11.34a9.34,9.34,0,0,0-3.49-.85A8.62,8.62,0,0,0,5,11.83,9.57,9.57,0,0,0,1.68,15.4a13.26,13.26,0,0,0-1.6,6.7,21.76,21.76,0,0,0,1.18,7A23.24,23.24,0,0,0,4.07,35a18.86,18.86,0,0,0,2.66,3.36,4.43,4.43,0,0,0,3.35,1.55A8.14,8.14,0,0,0,13,39.08a8.22,8.22,0,0,1,3.34-.73,8,8,0,0,1,3.23.73,8.15,8.15,0,0,0,3,.78,5,5,0,0,0,3.27-1.51A9.13,9.13,0,0,0,27,37.06c.48-.64.95-1.28,1.39-2s.72-1.15,1-1.75a15,15,0,0,0,.93-2c.13-.28.24-.58.35-.87l.3-.92a8.27,8.27,0,0,1-2.55-1.76,8.42,8.42,0,0,1-2.54-6.15Zm27.56,7h-.18L45.59,11H39.52V39.44h5.29V21h.24L51.5,35.64h3.71L61.64,21h.24V39.44h5.35V11h-6ZM21.14,7.25a8.57,8.57,0,0,0,2-5.45V1.41a2.56,2.56,0,0,0,0-.39,7.33,7.33,0,0,0-3,.9A8.11,8.11,0,0,0,17.53,4a8.06,8.06,0,0,0-2.05,5.26v.37a2.4,2.4,0,0,0,0,.37c2.11.21,4-.7,5.63-2.73ZM129,11h5.94V39.44H129Zm23.87,4.52c3.52,0,5.38,2.71,5.38,5.63h5.7v-.6c0-5.51-4.2-10.09-11.12-10.09-7.41,0-11.84,4.87-11.84,13.19v3.22C141,35.16,145.34,40,152.78,40c7.1,0,11.14-4.65,11.14-9.82v-.63h-5.7a5,5,0,0,1-5.34,5.38c-3.6,0-5.9-2.56-5.9-8v-3.2c0-5.47,2.32-8.16,5.86-8.16ZM89.94,29c0,3.82-2.23,5.92-5.51,5.92S78.9,32.79,78.9,29V11H73v18.8C73,35.85,77.3,40,84.43,40s11.42-4.13,11.42-10.2V11H89.94V29Zm25.56-6.09-4.24-1c-2.5-.52-3.81-1.62-3.81-3.27,0-2.19,1.78-3.57,4.65-3.57,3.24,0,4.85,1.86,5,3.86h5.52c-.06-5-4.25-8.53-10.5-8.53-5.92,0-10.58,3.11-10.58,8.7,0,4.84,3.27,7.09,7.2,7.94l4.2,1c2.83.65,4.26,1.59,4.26,3.52,0,2.22-1.76,3.72-5.06,3.72-3.54,0-5.4-1.88-5.57-4h-5.69c.08,4,2.74,8.72,11,8.72,6.92,0,11.2-3.44,11.2-9,0-5.17-3.47-7.19-7.56-8.09Z"/>
  </g>
</svg>
